<svg width="13.500000" height="13.500000" viewBox="0 0 13.5 13.5" fill="none" xmlns="http://www.w3.org/2000/svg" xmlns:xlink="http://www.w3.org/1999/xlink">
	<desc>
			Created with Pixso.
	</desc>
	<defs/>
	<path id="Vector" d="M9.75 0.75C11.4 0.75 12.75 2.09 12.75 3.75L12.75 9.75C12.75 11.4 11.4 12.75 9.75 12.75L3.75 12.75C2.09 12.75 0.75 11.4 0.75 9.75L0.75 3.75C0.75 2.09 2.09 0.75 3.75 0.75L9.75 0.75Z" stroke="#FFFFFF" stroke-opacity="1.000000" stroke-width="1.500000"/>
	<path id="Vector" d="M8.9 7.82C8.67 8.27 8.3 8.64 7.85 8.86C7.4 9.09 6.89 9.17 6.39 9.09C5.89 9.01 5.43 8.77 5.07 8.42C4.72 8.06 4.48 7.6 4.4 7.1C4.32 6.6 4.4 6.09 4.63 5.64C4.85 5.19 5.22 4.82 5.67 4.59C6.11 4.36 6.62 4.27 7.12 4.35C7.63 4.42 8.1 4.66 8.47 5.02C8.83 5.39 9.07 5.86 9.15 6.37C9.22 6.87 9.13 7.38 8.9 7.82Z" stroke="#FFFFFF" stroke-opacity="1.000000" stroke-width="1.500000" stroke-linejoin="round"/>
</svg>
