<svg width="33.721699" height="28.290283" viewBox="0 0 33.7217 28.2903" fill="none" xmlns="http://www.w3.org/2000/svg" xmlns:xlink="http://www.w3.org/1999/xlink">
	<desc>
			Created with Pixso.
	</desc>
	<defs/>
	<path id="Vector" d="M22.28 8.65L17.44 7.2C17.07 7.09 16.7 7.05 16.33 7.07L16.33 7.06L10.44 7.06L0 3.58L0.03 18.26L3.02 19.76L4.8 15.42L7.39 16.46L8.07 14.78L9.04 15.75L8.13 16.66C7.81 16.97 7.63 17.41 7.63 17.86C7.63 18.77 8.36 19.52 9.27 19.55C9.3 20.43 10.01 21.15 10.9 21.18C10.93 22.06 11.64 22.78 12.53 22.81C12.56 23.72 13.31 24.44 14.22 24.44C14.67 24.44 15.1 24.26 15.42 23.95L16.33 23.04L16.69 23.4C17.01 23.72 17.45 23.9 17.89 23.9C18.81 23.9 19.55 23.17 19.58 22.26C20.47 22.23 21.18 21.52 21.21 20.63C22.1 20.6 22.81 19.89 22.84 19C23.75 18.97 24.48 18.23 24.48 17.31C24.48 17.24 24.47 17.16 24.46 17.08L25.24 16.3L25.87 17.57L29.28 15.86L31.34 19.8L33.72 18.21L33.72 4.17L22.28 8.65ZM2.46 18.26L1.11 17.59L1.08 5.09L7.04 7.07L2.46 18.26ZM6.79 15.04L5.21 14.41L8.07 7.41L9.63 7.93L6.79 15.04ZM8.72 17.86C8.72 17.7 8.78 17.54 8.9 17.43L9.85 16.47C9.97 16.36 10.12 16.29 10.28 16.29C10.62 16.29 10.89 16.57 10.89 16.9C10.89 17.06 10.83 17.22 10.72 17.33L9.76 18.29C9.65 18.4 9.49 18.47 9.33 18.47C8.99 18.47 8.72 18.19 8.72 17.86ZM10.35 19.49C10.35 19.33 10.42 19.17 10.53 19.06L11.48 18.1C11.6 17.99 11.75 17.92 11.92 17.92C12.25 17.92 12.52 18.2 12.52 18.53C12.52 18.69 12.46 18.85 12.35 18.96L11.39 19.92C11.28 20.03 11.12 20.1 10.96 20.1C10.62 20.1 10.35 19.82 10.35 19.49ZM11.98 21.12C11.98 20.96 12.05 20.8 12.16 20.69L13.11 19.73C13.23 19.62 13.38 19.55 13.55 19.55C13.88 19.55 14.15 19.83 14.15 20.16C14.15 20.32 14.09 20.48 13.98 20.59L13.02 21.55C12.91 21.66 12.75 21.73 12.59 21.73C12.25 21.73 11.98 21.45 11.98 21.12ZM15.61 22.22L14.65 23.18C14.54 23.29 14.38 23.36 14.22 23.36C13.88 23.36 13.61 23.08 13.61 22.75C13.61 22.59 13.68 22.43 13.79 22.32L14.74 21.36C14.86 21.25 15.02 21.18 15.18 21.18C15.51 21.18 15.78 21.46 15.78 21.79C15.78 21.95 15.72 22.11 15.61 22.22ZM22.78 17.92C22.62 17.92 22.47 17.86 22.35 17.75L17.8 13.19L17.03 13.96L21.58 18.51C21.7 18.63 21.76 18.78 21.76 18.94C21.76 19.28 21.49 19.55 21.15 19.55C20.99 19.55 20.84 19.49 20.72 19.38L16.17 14.82L15.4 15.59L19.95 20.14C20.07 20.26 20.13 20.41 20.13 20.57C20.13 20.91 19.86 21.18 19.52 21.18C19.36 21.18 19.21 21.12 19.09 21.01L14.54 16.45L13.77 17.22L18.32 21.77C18.44 21.89 18.5 22.04 18.5 22.21C18.5 22.54 18.23 22.81 17.89 22.81C17.73 22.81 17.58 22.75 17.46 22.64L16.85 22.02C16.86 21.95 16.87 21.87 16.87 21.79C16.87 20.88 16.14 20.14 15.24 20.1C15.2 19.22 14.49 18.5 13.6 18.47C13.57 17.59 12.86 16.87 11.97 16.84C11.94 15.94 11.2 15.21 10.28 15.21C10.21 15.21 10.13 15.22 10.06 15.23L8.5 13.68L10.72 8.14L13.93 8.14L11.93 10.14C11.61 10.46 11.44 10.88 11.44 11.34C11.44 12.27 12.2 13.03 13.13 13.03C13.58 13.03 14.02 12.85 14.33 12.54L15.77 11.1C16.07 10.8 16.59 10.79 16.89 11.07L18.16 12.24C18.58 12.62 19.05 12.95 19.56 13.2L23.21 16.88C23.33 17 23.39 17.15 23.39 17.31C23.39 17.65 23.12 17.92 22.78 17.92ZM23.94 16.07L21.7 13.82C21.9 13.84 22.1 13.85 22.31 13.85L22.31 12.76C21.04 12.76 19.83 12.29 18.9 11.44L17.63 10.27C16.91 9.61 15.69 9.64 15 10.33L13.56 11.77C13.45 11.88 13.29 11.95 13.13 11.95C12.8 11.95 12.52 11.67 12.52 11.34C12.52 11.17 12.59 11.02 12.7 10.91L14.77 8.83C15.38 8.23 16.3 7.99 17.12 8.24L21.92 9.68L24.72 15.28L23.94 16.07ZM26.35 16.11L23.06 9.52L25.46 8.57L28.77 14.9L26.35 16.11ZM32.63 17.63L31.74 18.22L26.48 8.17L32.63 5.76L32.63 17.63Z" fill="#E3B873" fill-opacity="1.000000" fill-rule="nonzero"/>
	<circle id="Ellipse" cx="19.527096" cy="0.801025" r="0.485591" fill="#E3B873" fill-opacity="1.000000"/>
	<circle id="Ellipse" cx="7.270260" cy="23.730225" r="0.485591" fill="#E3B873" fill-opacity="1.000000"/>
	<circle id="Ellipse" cx="9.328365" cy="25.418701" r="0.485591" fill="#E3B873" fill-opacity="1.000000"/>
	<circle id="Ellipse" cx="11.676998" cy="26.657471" r="0.485591" fill="#E3B873" fill-opacity="1.000000"/>
	<circle id="Ellipse" cx="14.225826" cy="27.449951" r="0.485591" fill="#E3B873" fill-opacity="1.000000"/>
	<circle id="Ellipse" cx="22.074459" cy="1.573975" r="0.485591" fill="#E3B873" fill-opacity="1.000000"/>
	<circle id="Ellipse" cx="24.423580" cy="2.828369" r="0.485591" fill="#E3B873" fill-opacity="1.000000"/>
	<path id="Vector" d="M26.69 2.12L26.69 4.92L23.85 4.92" stroke="#E3B873" stroke-opacity="1.000000" stroke-width="1.000000" stroke-linejoin="round" stroke-linecap="round"/>
	<path id="Vector" d="M4.87 23.41L4.87 21.14L7.13 21.14" stroke="#E3B873" stroke-opacity="1.000000" stroke-width="1.000000" stroke-linejoin="round" stroke-linecap="round"/>
	<path id="Vector 2.2" d="M7.66 4.1C9.19 2.77 10.17 2.15 12.01 1.44C13.96 0.67 15.28 0.5 17.4 0.5" stroke="#E3B873" stroke-opacity="1.000000" stroke-width="1.000000" stroke-linecap="round"/>
	<path id="Vector 2.3" d="M28.26 21.59C27.12 23.37 24.99 25.11 23.26 26.07C21.43 27.08 19.47 27.65 16.85 27.79" stroke="#E3B873" stroke-opacity="1.000000" stroke-width="1.000000" stroke-linecap="round"/>
</svg>
