<svg width="40.200012" height="33.238464" viewBox="0 0 40.2 33.2385" fill="none" xmlns="http://www.w3.org/2000/svg" xmlns:xlink="http://www.w3.org/1999/xlink">
	<desc>
			Created with Pixso.
	</desc>
	<defs/>
	<path d="M20.43 23.94C20.08 23.94 19.8 24.22 19.8 24.56L19.8 25.89C19.8 26.23 20.08 26.51 20.43 26.51C20.79 26.51 21.07 26.23 21.07 25.89L21.07 24.56C21.07 24.22 20.79 23.94 20.43 23.94Z" fill="#FFFFFF" fill-opacity="1.000000" fill-rule="nonzero"/>
	<path d="M19.75 24.3Q19.7 24.42 19.7 24.56L19.7 25.89Q19.7 26.03 19.75 26.16Q19.8 26.29 19.91 26.4Q20.02 26.5 20.14 26.55Q20.28 26.61 20.43 26.61Q20.59 26.61 20.73 26.55Q20.85 26.5 20.95 26.4Q21.07 26.29 21.12 26.16Q21.17 26.03 21.17 25.89L21.17 24.56Q21.17 24.42 21.12 24.3Q21.07 24.16 20.95 24.05Q20.85 23.95 20.73 23.9Q20.59 23.84 20.43 23.84Q20.28 23.84 20.14 23.9Q20.02 23.95 19.91 24.05Q19.8 24.16 19.75 24.3ZM19.8 24.56C19.8 24.22 20.08 23.94 20.43 23.94C20.79 23.94 21.07 24.22 21.07 24.56L21.07 25.89C21.07 26.23 20.79 26.51 20.43 26.51C20.08 26.51 19.8 26.23 19.8 25.89L19.8 24.56Z" fill="#FFFFFF" fill-opacity="1.000000" fill-rule="evenodd"/>
	<path d="M39.71 15.04C39.46 14.8 39.13 14.67 38.78 14.67C38.78 14.67 38.78 14.67 38.78 14.67L37.14 14.67C37.12 14.67 37.11 14.65 37.1 14.62C36.65 12.48 35.65 10.45 34.19 8.76C32.78 7.14 30.98 5.86 28.96 5.05C28.64 3.72 27.95 2.34 26.6 1.3C25.29 0.3 23.98 0.11 23.92 0.1C23.74 0.08 23.55 0.13 23.41 0.25C23.27 0.36 23.19 0.54 23.19 0.72L23.19 4.07L20.88 4.07C20.31 2.16 18.5 0.76 16.36 0.76C14.17 0.76 12.33 2.22 11.8 4.19C8.65 4.61 5.75 6.1 3.6 8.41C1.34 10.84 0.1 13.99 0.1 17.28C0.1 24.65 4.02 30.65 5.22 32.31C5.6 32.83 6.21 33.13 6.85 33.13L9.56 33.13C10.66 33.13 11.56 32.26 11.56 31.19L11.56 30.33C12.25 30.43 12.94 30.48 13.64 30.48L19.8 30.48L19.8 31.19C19.8 32.26 20.69 33.13 21.79 33.13L24.77 33.13C25.71 33.13 26.53 32.49 26.72 31.6L27.05 30.11C31.24 29.11 34.6 26.25 36.26 22.53L38.78 22.53C39.5 22.53 40.09 21.96 40.09 21.25L40.09 15.95C40.09 15.61 39.96 15.29 39.71 15.04ZM16.36 2C18.25 2 19.8 3.5 19.8 5.35C19.8 5.83 19.69 6.29 19.5 6.72L13.22 6.72C13.02 6.29 12.92 5.83 12.92 5.35C12.92 3.5 14.46 2 16.36 2ZM38.82 21.25C38.82 21.27 38.8 21.29 38.78 21.29L36.74 21.29C37.08 20.23 37.3 19.12 37.36 17.97C37.38 17.63 37.11 17.34 36.76 17.32C36.4 17.3 36.1 17.56 36.09 17.91C35.82 22.98 32.28 27.31 27.35 28.74L28.24 24.69C28.31 24.36 28.09 24.03 27.75 23.96C27.41 23.88 27.07 24.1 26.99 24.43L25.48 31.34C25.41 31.66 25.11 31.89 24.77 31.89L21.79 31.89C21.4 31.89 21.07 31.58 21.07 31.19L21.07 28.54C21.07 28.19 20.79 27.92 20.43 27.92C20.08 27.92 19.8 28.19 19.8 28.54L19.8 29.24L13.64 29.24C12.94 29.24 12.24 29.18 11.56 29.07L11.56 24.56C11.56 24.22 11.27 23.94 10.92 23.94C10.57 23.94 10.29 24.22 10.29 24.56L10.29 31.19C10.29 31.58 9.96 31.89 9.56 31.89L6.85 31.89C6.62 31.89 6.4 31.78 6.27 31.6C5.12 30.01 1.37 24.28 1.37 17.28C1.37 14.3 2.5 11.45 4.54 9.24C6.42 7.23 8.92 5.9 11.65 5.47C11.66 5.9 11.73 6.32 11.86 6.72L11.6 6.72C11.25 6.72 10.97 7 10.97 7.34C10.97 7.68 11.25 7.96 11.6 7.96L21.11 7.96C21.47 7.96 21.75 7.68 21.75 7.34C21.75 7 21.47 6.72 21.11 6.72L20.86 6.72C21 6.28 21.07 5.82 21.07 5.35C21.07 5.34 21.07 5.33 21.07 5.31L23.19 5.31L23.19 6.68C23.19 7.02 23.48 7.3 23.83 7.3C24.18 7.3 24.47 7.02 24.47 6.68L24.47 1.53C25.68 1.98 27.95 3.35 27.95 7.34C27.95 7.68 28.24 7.96 28.59 7.96C28.94 7.96 29.22 7.68 29.22 7.34C29.22 7.08 29.21 6.8 29.19 6.51C30.73 7.24 32.11 8.29 33.22 9.57C34.54 11.09 35.45 12.93 35.86 14.87C35.98 15.47 36.52 15.91 37.14 15.91L38.78 15.91C38.78 15.91 38.8 15.91 38.81 15.92C38.82 15.93 38.82 15.95 38.82 15.95L38.82 21.25L38.82 21.25Z" fill="#FFFFFF" fill-opacity="1.000000" fill-rule="nonzero"/>
	<path d="M39.12 14.61Q38.95 14.57 38.78 14.57L38.78 14.57L37.19 14.57Q37.09 14.07 36.95 13.59Q36.63 12.5 36.11 11.48Q35.76 10.77 35.34 10.12Q34.85 9.38 34.26 8.7Q33.94 8.32 33.59 7.97Q32.79 7.18 31.86 6.52Q31.14 6.01 30.36 5.59Q29.72 5.25 29.05 4.98Q28.64 3.34 27.66 2.17Q27.22 1.65 26.66 1.22Q26.35 0.99 26.02 0.79Q25.46 0.46 24.83 0.24Q24.51 0.12 24.2 0.05Q24.04 0.02 23.94 0Q23.86 -0.01 23.78 0Q23.7 0 23.62 0.02Q23.54 0.05 23.47 0.09Q23.4 0.12 23.35 0.17Q23.28 0.23 23.23 0.3Q23.19 0.35 23.16 0.42Q23.13 0.49 23.11 0.57Q23.09 0.64 23.09 0.72L23.09 3.97L20.96 3.97Q20.88 3.72 20.77 3.48Q20.58 3.06 20.32 2.69Q20.14 2.43 19.92 2.2Q19.62 1.88 19.27 1.62Q18.97 1.39 18.64 1.22Q18.29 1.04 17.92 0.91Q17.62 0.81 17.31 0.75Q16.84 0.66 16.36 0.66Q15.87 0.66 15.4 0.75Q15.08 0.81 14.76 0.92Q14.38 1.05 14.03 1.24Q13.7 1.42 13.4 1.66Q13.03 1.93 12.73 2.27Q12.52 2.5 12.34 2.77Q12.08 3.15 11.9 3.57Q11.8 3.83 11.72 4.1Q10.46 4.28 9.27 4.67Q8.25 5 7.28 5.5Q6.15 6.08 5.16 6.85Q4.29 7.52 3.53 8.34Q2.53 9.42 1.8 10.65Q1.29 11.53 0.91 12.49Q0.46 13.63 0.23 14.81Q0 16.02 0 17.28Q0 19.86 0.63 22.53Q1.16 24.75 2.12 26.98Q2.27 27.32 2.42 27.67Q3.06 29.04 3.83 30.35Q4.48 31.46 5.14 32.37Q5.27 32.55 5.42 32.69Q5.63 32.87 5.89 33.01Q6.11 33.11 6.34 33.17Q6.59 33.23 6.85 33.23L9.56 33.23Q9.8 33.23 10.03 33.18Q10.21 33.14 10.38 33.07Q10.58 32.99 10.75 32.88Q10.91 32.77 11.04 32.63Q11.22 32.47 11.34 32.27Q11.43 32.13 11.49 31.98Q11.57 31.8 11.62 31.61Q11.66 31.4 11.66 31.19L11.66 30.44Q12.41 30.55 13.16 30.58Q13.4 30.58 13.64 30.58L19.7 30.58L19.7 31.19Q19.7 31.4 19.74 31.61Q19.78 31.8 19.86 31.98Q19.93 32.13 20.02 32.27Q20.14 32.47 20.31 32.63Q20.45 32.77 20.61 32.88Q20.78 32.99 20.98 33.07Q21.15 33.14 21.32 33.18Q21.55 33.23 21.79 33.23L24.77 33.23Q24.95 33.23 25.13 33.2Q25.3 33.17 25.48 33.11Q25.65 33.05 25.8 32.97Q25.95 32.88 26.09 32.78Q26.26 32.64 26.4 32.48Q26.48 32.38 26.55 32.27Q26.66 32.09 26.73 31.91Q26.79 31.77 26.82 31.62L27.13 30.19Q28.04 29.97 28.91 29.63Q29.5 29.4 30.07 29.12Q30.82 28.74 31.52 28.27Q32.12 27.88 32.67 27.42Q33.37 26.84 33.98 26.17Q34.41 25.71 34.79 25.21Q35.39 24.42 35.86 23.56Q36.11 23.11 36.32 22.63L38.78 22.63Q38.94 22.63 39.09 22.6Q39.21 22.57 39.33 22.53Q39.46 22.47 39.58 22.39Q39.68 22.32 39.78 22.23Q39.89 22.12 39.98 21.99Q40.04 21.89 40.08 21.79Q40.14 21.67 40.17 21.54Q40.2 21.4 40.2 21.25L40.2 15.95Q40.2 15.8 40.16 15.65Q40.13 15.53 40.09 15.42Q40.05 15.33 40 15.25Q39.91 15.1 39.78 14.97Q39.67 14.87 39.55 14.79Q39.44 14.72 39.32 14.67Q39.22 14.63 39.12 14.61ZM36.26 22.53L38.78 22.53C39.5 22.53 40.09 21.96 40.09 21.25L40.09 15.95C40.09 15.61 39.96 15.29 39.71 15.04C39.46 14.8 39.13 14.67 38.78 14.67L38.78 14.67L37.14 14.67C37.12 14.67 37.11 14.65 37.1 14.62C36.65 12.48 35.65 10.45 34.19 8.76C32.78 7.14 30.98 5.86 28.96 5.05C28.64 3.72 27.95 2.34 26.6 1.3C25.29 0.3 23.98 0.11 23.92 0.1C23.74 0.08 23.55 0.13 23.41 0.25C23.27 0.36 23.19 0.54 23.19 0.72L23.19 4.07L23.09 4.07L20.88 4.07C20.31 2.16 18.5 0.76 16.36 0.76C14.17 0.76 12.33 2.22 11.8 4.19C8.65 4.61 5.75 6.1 3.6 8.41C1.34 10.84 0.1 13.99 0.1 17.28C0.1 24.65 4.02 30.65 5.22 32.31C5.6 32.83 6.21 33.13 6.85 33.13L9.56 33.13C10.66 33.13 11.56 32.26 11.56 31.19L11.56 30.33C11.59 30.33 11.63 30.34 11.66 30.34C12.31 30.44 12.98 30.48 13.64 30.48L19.7 30.48L19.8 30.48L19.8 31.19C19.8 32.26 20.69 33.13 21.79 33.13L24.77 33.13C25.71 33.13 26.53 32.49 26.72 31.6L27.05 30.11C31.24 29.11 34.6 26.25 36.26 22.53ZM38.82 21.25L38.82 15.95C38.82 15.95 38.82 15.93 38.81 15.92C38.8 15.91 38.78 15.91 38.78 15.91L37.14 15.91C36.52 15.91 35.98 15.47 35.86 14.87C35.45 12.93 34.54 11.09 33.22 9.57C32.13 8.31 30.79 7.29 29.3 6.56C29.26 6.55 29.23 6.53 29.19 6.51C29.2 6.55 29.2 6.59 29.2 6.63C29.22 6.87 29.22 7.11 29.22 7.34C29.22 7.68 28.94 7.96 28.59 7.96C28.24 7.96 27.95 7.68 27.95 7.34C27.95 3.45 25.8 2.05 24.57 1.57C24.53 1.56 24.5 1.54 24.47 1.53L24.47 6.68C24.47 7.02 24.18 7.3 23.83 7.3C23.48 7.3 23.19 7.02 23.19 6.68L23.19 5.31L21.07 5.31C21.07 5.33 21.07 5.34 21.07 5.35C21.07 5.37 21.07 5.39 21.07 5.41C21.07 5.82 21 6.23 20.89 6.62C20.88 6.65 20.87 6.69 20.86 6.72L21.11 6.72C21.47 6.72 21.75 7 21.75 7.34C21.75 7.68 21.47 7.96 21.11 7.96L11.6 7.96C11.25 7.96 10.97 7.68 10.97 7.34C10.97 7 11.25 6.72 11.6 6.72L11.86 6.72C11.85 6.69 11.84 6.65 11.83 6.62C11.73 6.28 11.67 5.93 11.65 5.57C11.65 5.54 11.65 5.5 11.65 5.47C11.61 5.47 11.58 5.48 11.55 5.49C8.86 5.94 6.4 7.25 4.54 9.24C2.5 11.45 1.37 14.3 1.37 17.28C1.37 24.28 5.12 30.01 6.27 31.6C6.4 31.78 6.62 31.89 6.85 31.89L9.56 31.89C9.96 31.89 10.29 31.58 10.29 31.19L10.29 24.56C10.29 24.22 10.57 23.94 10.92 23.94C11.27 23.94 11.56 24.22 11.56 24.56L11.56 29.07C12.24 29.18 12.94 29.24 13.64 29.24L19.8 29.24L19.8 28.54C19.8 28.19 20.08 27.92 20.43 27.92C20.79 27.92 21.07 28.19 21.07 28.54L21.07 31.19C21.07 31.58 21.4 31.89 21.79 31.89L24.77 31.89C25.11 31.89 25.41 31.66 25.48 31.34L26.99 24.43C27.07 24.1 27.41 23.88 27.75 23.96C28.09 24.03 28.31 24.36 28.24 24.69L27.37 28.63L27.35 28.74C27.39 28.73 27.42 28.72 27.46 28.71C32.33 27.25 35.82 22.94 36.09 17.91C36.1 17.56 36.4 17.3 36.76 17.32C37.11 17.34 37.38 17.63 37.36 17.97C37.3 19.08 37.1 20.16 36.77 21.19C36.76 21.23 36.75 21.26 36.74 21.29L38.78 21.29C38.8 21.29 38.82 21.27 38.82 21.25L38.82 21.25ZM38.72 21.15L38.72 16.01L37.14 16.01Q36.9 16.01 36.68 15.94Q36.45 15.86 36.25 15.7Q36.04 15.53 35.92 15.31Q35.81 15.12 35.76 14.89Q35.67 14.45 35.54 14.02Q35.25 13.04 34.79 12.11Q34.48 11.49 34.11 10.92Q33.67 10.25 33.14 9.63Q32.93 9.39 32.71 9.16Q32.06 8.49 31.3 7.91Q30.81 7.54 30.29 7.22Q29.81 6.93 29.3 6.68Q29.32 7.01 29.32 7.34Q29.32 7.48 29.27 7.61Q29.22 7.74 29.11 7.85Q29 7.95 28.88 8Q28.75 8.06 28.59 8.06Q28.43 8.06 28.3 8Q28.17 7.95 28.07 7.85Q27.96 7.74 27.9 7.61Q27.85 7.48 27.85 7.34Q27.85 4.75 26.59 3.17L26.58 3.17Q26.37 2.9 26.12 2.67Q25.82 2.38 25.47 2.15Q25.21 1.98 24.93 1.84Q24.75 1.75 24.57 1.68L24.57 6.68Q24.57 6.82 24.52 6.95Q24.46 7.08 24.35 7.19Q24.25 7.29 24.12 7.34Q23.99 7.4 23.83 7.4Q23.67 7.4 23.54 7.34Q23.42 7.29 23.31 7.19Q23.2 7.08 23.15 6.95Q23.09 6.82 23.09 6.68L23.09 5.41L21.17 5.41Q21.17 5.69 21.13 5.97Q21.09 6.3 20.99 6.62L21.11 6.62Q21.27 6.62 21.41 6.68Q21.53 6.73 21.63 6.83Q21.75 6.94 21.8 7.07Q21.85 7.2 21.85 7.34Q21.85 7.48 21.8 7.61Q21.75 7.74 21.63 7.85Q21.53 7.95 21.41 8Q21.27 8.06 21.11 8.06L11.6 8.06Q11.44 8.06 11.31 8Q11.19 7.95 11.08 7.85Q10.97 7.74 10.92 7.61Q10.87 7.48 10.87 7.34Q10.87 7.2 10.92 7.07Q10.97 6.94 11.08 6.83Q11.19 6.73 11.31 6.68Q11.44 6.62 11.6 6.62L11.72 6.62Q11.65 6.35 11.6 6.07Q11.56 5.83 11.55 5.59Q10.5 5.76 9.51 6.11Q8.64 6.42 7.82 6.85Q6.86 7.36 6.02 8.03Q5.27 8.61 4.62 9.31Q3.73 10.27 3.08 11.38Q2.62 12.16 2.28 13.01Q1.88 14.02 1.68 15.07Q1.47 16.15 1.47 17.28Q1.47 19.71 2.07 22.22Q2.57 24.33 3.48 26.43Q3.57 26.65 3.67 26.87Q4.31 28.28 5.1 29.62Q5.72 30.67 6.35 31.54Q6.39 31.6 6.45 31.65Q6.5 31.69 6.57 31.72Q6.6 31.74 6.65 31.76Q6.74 31.79 6.85 31.79L9.56 31.79Q9.7 31.79 9.81 31.74Q9.92 31.7 10 31.61Q10.1 31.52 10.15 31.41Q10.19 31.3 10.19 31.19L10.19 24.56Q10.19 24.42 10.24 24.3Q10.29 24.16 10.4 24.05Q10.51 23.95 10.63 23.9Q10.76 23.84 10.92 23.84Q11.08 23.84 11.22 23.9Q11.34 23.95 11.44 24.05Q11.56 24.16 11.61 24.3Q11.66 24.42 11.66 24.56L11.66 28.98Q12.39 29.1 13.13 29.13Q13.38 29.14 13.64 29.14L19.7 29.14L19.7 28.54Q19.7 28.39 19.75 28.27Q19.8 28.14 19.91 28.03Q20.02 27.93 20.14 27.87Q20.28 27.82 20.43 27.82Q20.59 27.82 20.73 27.87Q20.85 27.93 20.95 28.03Q21.07 28.14 21.12 28.27Q21.17 28.39 21.17 28.54L21.17 31.19Q21.17 31.3 21.21 31.41Q21.26 31.52 21.35 31.61Q21.44 31.7 21.55 31.74Q21.66 31.79 21.79 31.79L24.77 31.79Q24.88 31.79 24.98 31.76Q25.08 31.72 25.16 31.66Q25.26 31.58 25.32 31.48Q25.36 31.4 25.38 31.31L26.9 24.41Q26.93 24.27 27 24.16Q27.08 24.04 27.22 23.96Q27.34 23.88 27.48 23.85Q27.62 23.83 27.77 23.86Q27.93 23.89 28.05 23.98Q28.16 24.05 28.24 24.17Q28.32 24.3 28.35 24.44Q28.37 24.57 28.34 24.72L27.48 28.6Q28.39 28.32 29.24 27.91Q29.99 27.55 30.7 27.08Q31.55 26.51 32.29 25.81Q32.88 25.26 33.39 24.63Q34.09 23.76 34.61 22.8Q34.95 22.17 35.21 21.5Q35.55 20.62 35.75 19.7Q35.94 18.81 35.99 17.9Q35.99 17.76 36.05 17.64Q36.11 17.51 36.23 17.4Q36.34 17.31 36.47 17.26Q36.6 17.21 36.76 17.22Q36.92 17.23 37.05 17.29Q37.17 17.35 37.27 17.46Q37.38 17.57 37.42 17.71Q37.47 17.83 37.46 17.98Q37.42 18.78 37.28 19.56Q37.13 20.39 36.87 21.19L38.72 21.19L38.72 21.15L38.72 21.15ZM16.36 2C18.25 2 19.8 3.5 19.8 5.35C19.8 5.83 19.69 6.29 19.5 6.72L13.22 6.72C13.02 6.29 12.92 5.83 12.92 5.35C12.92 3.5 14.46 2 16.36 2ZM13.28 6.62Q13.14 6.28 13.07 5.93Q13.02 5.65 13.02 5.35Q13.02 5.01 13.09 4.69Q13.15 4.38 13.28 4.09Q13.38 3.85 13.52 3.64Q13.72 3.32 14 3.05Q14.22 2.84 14.47 2.67Q14.74 2.49 15.06 2.36Q15.33 2.25 15.6 2.18Q15.97 2.1 16.36 2.1Q16.75 2.1 17.11 2.18Q17.39 2.25 17.66 2.36Q17.97 2.49 18.25 2.67Q18.5 2.84 18.72 3.05Q19 3.32 19.2 3.64Q19.33 3.85 19.44 4.09Q19.56 4.38 19.63 4.69Q19.7 5.01 19.7 5.35Q19.7 5.65 19.64 5.95Q19.58 6.29 19.43 6.62L13.28 6.62Z" fill="#FFFFFF" fill-opacity="1.000000" fill-rule="evenodd"/>
	<path d="M33.26 15.07C32.87 14.04 31.82 13.34 30.66 13.34C29.5 13.34 28.45 14.04 28.05 15.07C27.93 15.39 28.1 15.75 28.43 15.87C28.76 15.99 29.12 15.83 29.25 15.51C29.46 14.96 30.02 14.59 30.66 14.59C31.29 14.59 31.86 14.96 32.07 15.51C32.16 15.76 32.41 15.91 32.66 15.91C32.74 15.91 32.81 15.9 32.89 15.87C33.22 15.75 33.38 15.39 33.26 15.07Z" fill="#FFFFFF" fill-opacity="1.000000" fill-rule="nonzero"/>
	<path d="M31.13 13.28Q30.9 13.24 30.66 13.24Q30.42 13.24 30.18 13.28Q29.98 13.31 29.79 13.37Q29.54 13.45 29.3 13.57Q29.15 13.64 29.01 13.74Q28.76 13.91 28.55 14.12Q28.46 14.21 28.39 14.3Q28.21 14.52 28.08 14.77Q28.01 14.9 27.96 15.04Q27.91 15.18 27.91 15.31Q27.92 15.45 27.98 15.59Q28.04 15.72 28.14 15.81Q28.24 15.91 28.39 15.97Q28.54 16.02 28.68 16.01Q28.82 16.01 28.96 15.95Q29.1 15.88 29.2 15.77Q29.29 15.67 29.34 15.54Q29.39 15.4 29.47 15.28Q29.62 15.07 29.85 14.92Q30 14.82 30.17 14.76Q30.4 14.69 30.66 14.69Q30.91 14.69 31.14 14.76Q31.31 14.82 31.47 14.92Q31.7 15.07 31.84 15.28Q31.92 15.4 31.97 15.54Q32.01 15.64 32.08 15.73Q32.15 15.82 32.25 15.89Q32.34 15.95 32.44 15.98Q32.55 16.01 32.66 16.01Q32.73 16.01 32.78 16Q32.85 15.99 32.92 15.97Q33.07 15.91 33.18 15.81Q33.27 15.72 33.33 15.59Q33.4 15.45 33.4 15.31Q33.41 15.18 33.35 15.04Q33.3 14.9 33.23 14.77Q33.11 14.52 32.93 14.3Q32.85 14.21 32.77 14.12Q32.56 13.91 32.3 13.74Q32.16 13.64 32.01 13.57Q31.78 13.45 31.53 13.37Q31.33 13.31 31.13 13.28ZM33.26 15.07C32.87 14.04 31.82 13.34 30.66 13.34C29.5 13.34 28.45 14.04 28.05 15.07C27.93 15.39 28.1 15.75 28.43 15.87C28.76 15.99 29.12 15.83 29.25 15.51C29.46 14.96 30.02 14.59 30.66 14.59C31.29 14.59 31.86 14.96 32.07 15.51C32.16 15.76 32.41 15.91 32.66 15.91C32.74 15.91 32.81 15.9 32.89 15.87C33.22 15.75 33.38 15.39 33.26 15.07Z" fill="#FFFFFF" fill-opacity="1.000000" fill-rule="evenodd"/>
	<path d="M17 16.8L17 13.63C18.24 13.78 19.12 14.34 19.12 14.85C19.12 15.2 19.4 15.48 19.76 15.48C20.11 15.48 20.39 15.2 20.39 14.85C20.39 13.59 18.94 12.56 17 12.38L17 12.31C17 11.97 16.71 11.69 16.36 11.69C16.01 11.69 15.72 11.97 15.72 12.31L15.72 12.38C13.77 12.56 12.32 13.59 12.32 14.85C12.32 16.67 14.16 17.32 15.72 17.75L15.72 20.92C14.47 20.78 13.6 20.21 13.6 19.7C13.6 19.36 13.31 19.08 12.96 19.08C12.61 19.08 12.32 19.36 12.32 19.7C12.32 20.97 13.77 21.99 15.72 22.17L15.72 22.24C15.72 22.59 16.01 22.87 16.36 22.87C16.71 22.87 17 22.59 17 22.24L17 22.17C18.94 21.99 20.39 20.97 20.39 19.7C20.39 17.89 18.55 17.23 17 16.8ZM15.72 16.45C14.15 15.97 13.6 15.53 13.6 14.85C13.6 14.34 14.47 13.78 15.72 13.63L15.72 16.45ZM17 20.92L17 18.1C18.56 18.58 19.12 19.02 19.12 19.7C19.12 20.21 18.24 20.78 17 20.92Z" fill="#FFFFFF" fill-opacity="1.000000" fill-rule="nonzero"/>
	<path d="M17 13.73L17 16.8C18.55 17.23 20.39 17.89 20.39 19.7C20.39 20.97 18.94 21.99 17 22.17L17 22.24C17 22.59 16.71 22.87 16.36 22.87C16.01 22.87 15.72 22.59 15.72 22.24L15.72 22.17C13.77 21.99 12.32 20.97 12.32 19.7C12.32 19.36 12.61 19.08 12.96 19.08C13.31 19.08 13.6 19.36 13.6 19.7C13.6 20.2 14.43 20.75 15.62 20.91C15.65 20.92 15.69 20.92 15.72 20.92L15.72 17.75C14.16 17.32 12.32 16.67 12.32 14.85C12.32 13.59 13.77 12.56 15.72 12.38L15.72 12.31C15.72 11.97 16.01 11.69 16.36 11.69C16.71 11.69 17 11.97 17 12.31L17 12.38C18.94 12.56 20.39 13.59 20.39 14.85C20.39 15.2 20.11 15.48 19.76 15.48C19.4 15.48 19.12 15.2 19.12 14.85C19.12 14.36 18.29 13.81 17.1 13.64C17.06 13.64 17.03 13.63 17 13.63L17 13.73ZM17.1 13.74L17.1 16.73Q17.76 16.91 18.22 17.09Q18.88 17.34 19.33 17.65Q20.04 18.13 20.32 18.79Q20.49 19.21 20.49 19.7Q20.49 19.84 20.47 19.98Q20.41 20.33 20.22 20.65Q19.96 21.08 19.48 21.42Q19.01 21.76 18.38 21.98Q17.78 22.19 17.1 22.26Q17.09 22.4 17.04 22.51Q16.99 22.65 16.88 22.76Q16.77 22.86 16.65 22.91Q16.52 22.97 16.36 22.97Q16.2 22.97 16.07 22.91Q15.94 22.86 15.84 22.76Q15.73 22.65 15.67 22.51Q15.62 22.4 15.62 22.26Q14.94 22.19 14.34 21.98Q13.7 21.76 13.23 21.42Q12.75 21.08 12.5 20.65Q12.3 20.33 12.25 19.98Q12.22 19.84 12.22 19.7Q12.22 19.55 12.27 19.43Q12.33 19.3 12.44 19.19Q12.54 19.09 12.67 19.03Q12.8 18.98 12.96 18.98Q13.12 18.98 13.25 19.03Q13.38 19.09 13.48 19.19Q13.59 19.3 13.65 19.43Q13.7 19.55 13.7 19.7Q13.7 19.85 13.83 20.02Q13.98 20.2 14.24 20.36Q14.52 20.53 14.89 20.65Q15.24 20.76 15.62 20.81L15.62 17.83Q14.95 17.64 14.5 17.47Q13.84 17.21 13.38 16.9Q12.67 16.42 12.4 15.76Q12.22 15.34 12.22 14.85Q12.22 14.71 12.25 14.57Q12.3 14.23 12.5 13.91Q12.75 13.47 13.23 13.13Q13.7 12.79 14.34 12.57Q14.94 12.36 15.62 12.29Q15.62 12.16 15.67 12.04Q15.73 11.91 15.84 11.8Q15.94 11.7 16.07 11.64Q16.2 11.59 16.36 11.59Q16.52 11.59 16.65 11.64Q16.77 11.7 16.88 11.8Q16.99 11.91 17.04 12.04Q17.09 12.16 17.1 12.29Q17.78 12.36 18.38 12.57Q19.01 12.79 19.48 13.13Q19.96 13.47 20.22 13.91Q20.41 14.23 20.47 14.57Q20.49 14.71 20.49 14.85Q20.49 15 20.44 15.12Q20.39 15.26 20.28 15.37Q20.17 15.47 20.05 15.52Q19.91 15.58 19.76 15.58Q19.6 15.58 19.46 15.52Q19.34 15.47 19.24 15.37Q19.12 15.26 19.07 15.12Q19.02 15 19.02 14.85Q19.02 14.7 18.88 14.53Q18.74 14.35 18.47 14.19Q18.19 14.02 17.82 13.91Q17.48 13.8 17.1 13.74ZM13.78 15.24Q13.7 15.07 13.7 14.85Q13.7 14.7 13.83 14.53Q13.98 14.35 14.24 14.19Q14.52 14.02 14.89 13.91Q15.24 13.8 15.62 13.74L15.62 16.31Q14.57 15.98 14.13 15.65Q13.9 15.47 13.8 15.28Q13.79 15.26 13.78 15.24ZM15.72 16.35L15.72 16.45C15.69 16.44 15.65 16.43 15.62 16.42C14.13 15.95 13.6 15.52 13.6 14.85C13.6 14.36 14.43 13.81 15.62 13.64C15.65 13.64 15.69 13.63 15.72 13.63L15.72 16.35ZM17 18.21L17 20.92C17.03 20.92 17.06 20.92 17.1 20.91C18.29 20.75 19.12 20.2 19.12 19.7C19.12 19.03 18.59 18.6 17.1 18.13C17.06 18.12 17.03 18.11 17 18.1L17 18.21ZM17.1 18.24L17.1 20.81Q17.48 20.76 17.82 20.65Q18.19 20.53 18.47 20.36Q18.74 20.2 18.88 20.02Q19.02 19.85 19.02 19.7Q19.02 19.48 18.94 19.31Q18.93 19.29 18.92 19.28Q18.81 19.08 18.58 18.91Q18.14 18.57 17.1 18.24Z" fill="#FFFFFF" fill-opacity="1.000000" fill-rule="evenodd"/>
</svg>
